<?xml version="1.0" encoding="iso-8859-1"?>
<!-- Generator: Adobe Illustrator 19.0.0, SVG Export Plug-In . SVG Version: 6.00 Build 0)  -->
<svg version="1.1" id="Layer_1" xmlns="http://www.w3.org/2000/svg" xmlns:xlink="http://www.w3.org/1999/xlink" x="0px" y="0px"
	 viewBox="0 0 512 512" style="enable-background:new 0 0 512 512;" xml:space="preserve">
<path style="fill:#99DDFF;" d="M217.043,506.435H16.696C7.475,506.435,0,498.96,0,489.739V389.565
	c0-46.103,37.375-83.478,83.478-83.478h244.87c9.22,0,16.696,7.475,16.696,16.696v66.783c0,9.22-7.475,16.696-16.696,16.696h-85.426
	c-5.071,0-9.183,4.112-9.183,9.183v74.296C233.739,498.96,226.264,506.435,217.043,506.435z"/>
<path style="fill:#5CB8E6;" d="M328.348,306.087H150.261v200.348h66.783c9.22,0,16.696-7.475,16.696-16.696v-74.296
	c0-5.071,4.112-9.183,9.183-9.183h85.426c9.22,0,16.696-7.475,16.696-16.696v-66.783
	C345.043,313.562,337.568,306.087,328.348,306.087z"/>
<path style="fill:#E6F3FF;" d="M233.739,306.087H83.478c-5.717,0-11.3,0.58-16.696,1.68v15.016c0,46.03,37.448,83.478,83.478,83.478
	s83.478-37.448,83.478-83.478V306.087z"/>
<path style="fill:#B8C9D9;" d="M150.261,306.087v100.174c46.03,0,83.478-37.448,83.478-83.478v-16.696H150.261z"/>
<path style="fill:#FFAA00;" d="M495.304,506.435H328.348c-9.22,0-16.696-7.475-16.696-16.696V172.522
	c0-55.236,44.938-100.174,100.174-100.174S512,117.286,512,172.522v317.217C512,498.96,504.525,506.435,495.304,506.435z"/>
<path style="fill:#F28D00;" d="M495.304,506.435c9.22,0,16.696-7.475,16.696-16.696V172.522
	c0-55.236-44.938-100.174-100.174-100.174v434.087H495.304z"/>
<path style="fill:#FFCC99;" d="M150.261,372.87c-27.618,0-50.087-22.469-50.087-50.087v-39.091c0-9.22,7.475-16.696,16.696-16.696
	h66.783c9.22,0,16.696,7.475,16.696,16.696v39.091C200.348,350.401,177.879,372.87,150.261,372.87z"/>
<path style="fill:#F2AC79;" d="M183.652,266.996h-33.391V372.87c27.618,0,50.087-22.469,50.087-50.087v-39.091
	C200.348,274.471,192.873,266.996,183.652,266.996z"/>
<path style="fill:#007AB3;" d="M428.522,306.087H395.13c-9.22,0-16.696-7.475-16.696-16.696c0-9.22,7.475-16.696,16.696-16.696
	h33.391c9.22,0,16.696,7.475,16.696,16.696C445.217,298.612,437.742,306.087,428.522,306.087z"/>
<path style="fill:#005E80;" d="M411.826,306.087h16.696c9.22,0,16.696-7.475,16.696-16.696c0-9.22-7.475-16.696-16.696-16.696
	h-16.696V306.087z"/>
<path style="fill:#007AB3;" d="M428.522,239.304H395.13c-9.22,0-16.696-7.475-16.696-16.696s7.475-16.696,16.696-16.696h33.391
	c9.22,0,16.696,7.475,16.696,16.696S437.742,239.304,428.522,239.304z"/>
<path style="fill:#005E80;" d="M411.826,239.304h16.696c9.22,0,16.696-7.475,16.696-16.696s-7.475-16.696-16.696-16.696h-16.696
	V239.304z"/>
<path style="fill:#FFEECC;" d="M150.261,306.087c-64.442,0-116.87-52.428-116.87-116.87c0-9.22,7.475-16.696,16.696-16.696h200.348
	c9.22,0,16.696,7.475,16.696,16.696C267.13,253.659,214.703,306.087,150.261,306.087z"/>
<path style="fill:#FFD9B3;" d="M250.435,172.522H150.261v133.565c64.442,0,116.87-52.428,116.87-116.87
	C267.13,179.997,259.655,172.522,250.435,172.522z"/>
<path style="fill:#99DDFF;" d="M33.391,189.217c0,27.618,22.469,50.087,50.087,50.087h33.391c12.819,0,24.523-4.846,33.391-12.794
	c8.869,7.949,20.572,12.794,33.391,12.794h33.391c27.618,0,50.087-22.469,50.087-50.087v-33.391H33.391V189.217z"/>
<path style="fill:#73C0E6;" d="M150.261,226.51c8.869,7.949,20.572,12.794,33.391,12.794h33.391
	c27.618,0,50.087-22.469,50.087-50.087v-33.391h-116.87V226.51z"/>
<path style="fill:#E6F3FF;" d="M150.261,105.739c-27.618,0-50.087-22.469-50.087-50.087s22.469-50.087,50.087-50.087
	s50.087,22.469,50.087,50.087S177.879,105.739,150.261,105.739z"/>
<path style="fill:#B8C9D9;" d="M150.261,5.565v100.174c27.618,0,50.087-22.469,50.087-50.087S177.879,5.565,150.261,5.565z"/>
<path style="fill:#007AB3;" d="M265.958,139.189c-0.003-0.02-0.004-0.04-0.008-0.059c-3.595-25.5-15.482-48.918-34.326-67.194
	c-22.884-22.205-53.081-33.87-85.003-32.924c-30.453,0.935-58.925,13.501-80.184,35.384c-17.375,17.887-28.394,40.437-31.855,64.735
	c-0.003,0.023-0.006,0.047-0.009,0.069L51.2,155.826h198.122L265.958,139.189z"/>
<path style="fill:#005E80;" d="M265.958,139.189c-0.003-0.02-0.004-0.04-0.008-0.059c-3.595-25.5-15.482-48.918-34.326-67.194
	c-22.016-21.359-50.788-32.957-81.363-32.968v116.858h99.061L265.958,139.189z"/>
<path style="fill:#E6F3FF;" d="M267.13,155.815v16.707H33.391v-16.696c0-5.632,0.401-11.208,1.191-16.696h231.368
	C266.741,144.607,267.13,150.183,267.13,155.815z"/>
<path style="fill:#B8C9D9;" d="M267.13,155.815v16.707h-116.87V139.13h115.69C266.741,144.607,267.13,150.183,267.13,155.815z"/>
<path style="fill:#5CB8E6;" d="M50.087,406.261c-9.22,0-16.696,7.475-16.696,16.696v83.478h33.391v-83.478
	C66.783,413.736,59.307,406.261,50.087,406.261z"/>
<g>
</g>
<g>
</g>
<g>
</g>
<g>
</g>
<g>
</g>
<g>
</g>
<g>
</g>
<g>
</g>
<g>
</g>
<g>
</g>
<g>
</g>
<g>
</g>
<g>
</g>
<g>
</g>
<g>
</g>
</svg>
